# xmcd
# Copyright (C) 1995-1998 Ti Kan
#
# Track frame offsets:
#       150
#       15149
#       30579
#       44908
#       60593
#       74699
#       88591
#       104715
#       117986
#       131250
#       145107
#       158386
#
# Disc length: 2320 seconds
#
# Revision: 0
# Processed by: cddbd v1.5.2PL0 Copyright (c) Steve Scherf et al.
# Submitted via: CD-Transfer v1.0
#
DISCID=9d090e0c
DTITLE=Alpentrio Tirol - 
DYEAR=08
DGENRE=
TTITLE0=Auch Noch Mit Hundert Jahren (08)
TTITLE1=Tränen Sind Perlen (08)
TTITLE2=Montego Bay (08)
TTITLE3=Für Immer (08)
TTITLE4=Die Schönsten Lieder Schreibt Das Herz (08)
TTITLE5=Weil Mich Dein Lächeln Durchs Leben Trägt (08)
TTITLE6=Stell Der Liebe Keine Fragen (08)
TTITLE7=Zwei Herzen Brennen (08)
TTITLE8=Schenk Mir Dein Herz (08)
TTITLE9=Feiern Mit Euch (08)
TTITLE10=Die Kleine Kapelle Am Waldesrand (08)
TTITLE11=Ewige Liebe (08)
EXTD=
EXTT0=
EXTT1=
EXTT2=
EXTT3=
EXTT4=
EXTT5=
EXTT6=
EXTT7=
EXTT8=
EXTT9=
EXTT10=
EXTT11=
PLAYORDER=
